<svg width="175" height="41" viewBox="0 0 175 41" fill="none" xmlns="http://www.w3.org/2000/svg">
<g clip-path="url(#clip0_4_2726)">
<path d="M21.2693 25.9864C21.8323 26.7297 22.117 27.5875 22.117 28.5659C22.117 30.0527 21.6299 31.2027 20.6493 32.0096C19.6687 32.8165 18.2642 33.2231 16.4296 33.2231H7.56635V16.2335H16.1955C17.9163 16.2335 19.2701 16.6084 20.257 17.3645C21.244 18.1142 21.7374 19.2134 21.7374 20.6493C21.7374 21.6405 21.478 22.4791 20.9593 23.159C20.4405 23.8388 19.7509 24.2899 18.8905 24.5123C19.9091 24.7537 20.6999 25.243 21.2693 25.9864ZM12.8678 22.854H14.9239C15.4047 22.854 15.759 22.7587 15.9867 22.5681C16.2145 22.3775 16.3347 22.0789 16.3347 21.6786C16.3347 21.2783 16.2208 20.9543 15.9867 20.7573C15.7527 20.5603 15.3984 20.4587 14.9239 20.4587H12.8678V22.8604V22.854ZM16.3473 28.6739C16.5751 28.4897 16.6953 28.1911 16.6953 27.7717C16.6953 26.9585 16.2271 26.5455 15.2845 26.5455H12.8742V28.9471H15.2845C15.7653 28.9471 16.1196 28.8582 16.3473 28.6739Z" fill="#231F20"/>
<path d="M28.2599 20.4777V22.5681H33.5171V26.5772H28.2599V28.9789H34.232V33.2295H22.9521V16.2399H34.232V20.4904H28.2599V20.4777Z" fill="#231F20"/>
<path d="M48.3335 16.2335V20.4587H43.8417V33.2231H38.5339V20.4778H34.0865V16.2272H48.3271L48.3335 16.2335Z" fill="#231F20"/>
<path d="M62.0996 16.2335V20.4587H57.6079V33.2231H52.3001V20.4587H47.8527V16.2335H62.0933H62.0996Z" fill="#231F20"/>
<path d="M68.2425 20.4777V22.5681H73.4998V26.5772H68.2425V28.9789H74.2146V33.2295H62.9347V16.2399H74.2146V20.4904H68.2425V20.4777Z" fill="#231F20"/>
<path d="M83.5334 33.2231L80.3575 27.13H80.3322V33.2231H75.0244V16.2335H82.9134C84.2862 16.2335 85.4566 16.475 86.4245 16.9642C87.3988 17.4534 88.1263 18.1142 88.6135 18.9592C89.1006 19.7979 89.341 20.7446 89.341 21.8057C89.341 22.943 89.0247 23.9468 88.3984 24.83C87.7657 25.7131 86.8674 26.3422 85.6844 26.7234L89.3663 33.2295H83.5334V33.2231ZM80.3322 23.5783H82.4326C82.945 23.5783 83.3246 23.464 83.5777 23.2289C83.8307 23.0001 83.9573 22.6316 83.9573 22.136C83.9573 21.6913 83.8244 21.3355 83.565 21.0813C83.2993 20.8272 82.9261 20.7001 82.4326 20.7001H80.3322V23.5783Z" fill="#231F20"/>
<path d="M102.209 16.4495V17.841H94.8513V24.1057H101.064V25.4971H94.8513V33.2231H93.1811V16.4495H102.215H102.209Z" fill="#231F20"/>
<path d="M107.586 16.4495V33.2231H105.916V16.4495H107.586Z" fill="#231F20"/>
<path d="M124.459 33.2231H122.789L113.539 19.1117V33.2231H111.869V16.4495H113.539L122.789 30.5355V16.4495H124.459V33.2231Z" fill="#231F20"/>
<path d="M129.045 20.3951C129.76 19.0926 130.741 18.0761 131.987 17.3454C133.227 16.6147 134.619 16.2526 136.143 16.2526C138.01 16.2526 139.604 16.6973 140.933 17.5868C142.261 18.4763 143.229 19.728 143.836 21.3418H141.875C141.394 20.2045 140.667 19.315 139.686 18.6797C138.706 18.0379 137.523 17.7203 136.137 17.7203C134.91 17.7203 133.809 18.0062 132.828 18.5843C131.848 19.1625 131.082 19.9885 130.519 21.0686C129.963 22.1487 129.684 23.4004 129.684 24.8236C129.684 26.2468 129.963 27.4985 130.519 28.5659C131.076 29.6397 131.848 30.4593 132.828 31.0375C133.809 31.6157 134.91 31.9016 136.137 31.9016C137.523 31.9016 138.706 31.5839 139.686 30.9549C140.667 30.3259 141.394 29.4491 141.875 28.3245H143.836C143.229 29.9256 142.261 31.1645 140.92 32.0413C139.579 32.9245 137.991 33.3629 136.143 33.3629C134.612 33.3629 133.227 33.0007 131.987 32.2701C130.747 31.5394 129.766 30.5292 129.045 29.233C128.33 27.9369 127.97 26.4629 127.97 24.8173C127.97 23.1717 128.33 21.6913 129.045 20.3888V20.3951Z" fill="#231F20"/>
<path d="M151.415 32.3018C150.156 31.5712 149.163 30.5609 148.442 29.2521C147.714 27.9496 147.354 26.4692 147.354 24.8236C147.354 23.178 147.714 21.6976 148.442 20.3951C149.169 19.0926 150.156 18.0761 151.415 17.3454C152.674 16.6147 154.079 16.2526 155.622 16.2526C157.166 16.2526 158.596 16.6147 159.855 17.3454C161.114 18.0761 162.101 19.0863 162.815 20.3951C163.53 21.6976 163.891 23.178 163.891 24.8236C163.891 26.4692 163.53 27.9496 162.815 29.2521C162.101 30.5546 161.114 31.5712 159.855 32.3018C158.596 33.0325 157.185 33.3947 155.622 33.3947C154.06 33.3947 152.674 33.0325 151.415 32.3018ZM158.969 31.0629C159.956 30.4847 160.734 29.6587 161.31 28.5786C161.885 27.4985 162.17 26.2468 162.17 24.8236C162.17 23.4004 161.885 22.1487 161.31 21.0813C160.734 20.0076 159.956 19.1879 158.969 18.6098C157.982 18.0316 156.869 17.7457 155.622 17.7457C154.376 17.7457 153.263 18.0316 152.276 18.6098C151.289 19.1879 150.511 20.0076 149.935 21.0813C149.359 22.1551 149.075 23.4004 149.075 24.8236C149.075 26.2468 149.359 27.4985 149.935 28.5786C150.511 29.6587 151.289 30.4847 152.276 31.0629C153.263 31.6411 154.376 31.927 155.622 31.927C156.869 31.927 157.982 31.6411 158.969 31.0629Z" fill="#231F20"/>
<path d="M162.955 16.2399H164.384V16.5194H163.84V18.362H163.499V16.5194H162.961V16.2399H162.955ZM167.01 16.2399V18.362H166.693V16.7418L165.979 18.362H165.726L165.023 16.7227V18.362H164.713V16.2399H165.137L165.858 17.949L166.605 16.2399H167.01Z" fill="#231F20"/>
<path d="M89.2524 8.15173H7.56635V13.7938H89.2524V8.15173Z" fill="#231F20"/>
<path d="M175 41H0V0H175V41ZM1.92954 39.0621H173.07V1.93786H1.92954V39.0558V39.0621Z" fill="#231F20"/>
</g>
<defs>
<clipPath id="clip0_4_2726">
<rect width="175" height="41" fill="white"/>
</clipPath>
</defs>
</svg>
